<svg viewBox="0 0 22 15" fill="#1f77bc" version="1.1" xmlns="http://www.w3.org/2000/svg" xmlns:xlink="http://www.w3.org/1999/xlink">
<g stroke="none" stroke-width="1" fill-rule="evenodd">
<g fill-rule="nonzero">
<path d="M8.46141978,14.8817964 L8.69817228,14.6440693 C8.85506978,14.4865037 8.85506978,14.2310228 8.69817228,14.0734236 L2.721804,8.07160616 L21.5982138,8.07160616 C21.8201002,8.07160616 22,7.89094034 22,7.66810908 L22,7.3318615 C22,7.10903024 21.8201002,6.92836442 21.5982138,6.92836442 L2.721804,6.92836442 L8.69817228,0.926546998 C8.85506978,0.768981386 8.85506978,0.51350048 8.69817228,0.355901243 L8.46141978,0.118174209 C8.30452229,-0.0393914031 8.05012468,-0.0393914031 7.89322719,0.118174209 L0.826779568,7.21467922 C0.669882071,7.37224484 0.669882071,7.62772574 0.826779568,7.78532498 L7.89322719,14.88183 C8.05012468,15.0393956 8.30452229,15.0393956 8.46141978,14.8817964 Z" transform="translate(11.354553, 7.500000) scale(-1, 1) translate(-11.354553, -7.500000) "></path>
</g>
</g>
</svg>